<mxfile host="app.diagrams.net" modified="2021-08-20T06:19:03.917Z" agent="5.0 (Windows NT 10.0; Win64; x64) AppleWebKit/537.36 (KHTML, like Gecko) Chrome/92.0.4515.159 Safari/537.36" etag="pfQEeenZLXhZ2vm1DgY2" version="14.9.7" type="github" pages="2">
  <diagram id="pFfn5P9kbh6h3YXRNxmg" name="User Login">
    <mxGraphModel dx="2012" dy="762" grid="1" gridSize="10" guides="1" tooltips="1" connect="1" arrows="1" fold="1" page="1" pageScale="1" pageWidth="827" pageHeight="1169" math="0" shadow="0">
      <root>
        <mxCell id="0" />
        <mxCell id="1" parent="0" />
        <mxCell id="FltLW4cWOiDt6dzvmv6e-7" style="edgeStyle=orthogonalEdgeStyle;rounded=0;orthogonalLoop=1;jettySize=auto;html=1;exitX=0.5;exitY=1;exitDx=0;exitDy=0;entryX=0.5;entryY=0;entryDx=0;entryDy=0;" parent="1" source="FltLW4cWOiDt6dzvmv6e-1" target="FltLW4cWOiDt6dzvmv6e-2" edge="1">
          <mxGeometry relative="1" as="geometry" />
        </mxCell>
        <mxCell id="FltLW4cWOiDt6dzvmv6e-1" value="DB (TXT)" style="rounded=0;whiteSpace=wrap;html=1;" parent="1" vertex="1">
          <mxGeometry x="150" y="120" width="120" height="60" as="geometry" />
        </mxCell>
        <mxCell id="FltLW4cWOiDt6dzvmv6e-11" style="edgeStyle=orthogonalEdgeStyle;rounded=0;orthogonalLoop=1;jettySize=auto;html=1;entryX=0.75;entryY=1;entryDx=0;entryDy=0;" parent="1" source="FltLW4cWOiDt6dzvmv6e-2" target="FltLW4cWOiDt6dzvmv6e-1" edge="1">
          <mxGeometry relative="1" as="geometry">
            <Array as="points">
              <mxPoint x="240" y="190" />
              <mxPoint x="240" y="190" />
            </Array>
          </mxGeometry>
        </mxCell>
        <mxCell id="FltLW4cWOiDt6dzvmv6e-12" style="edgeStyle=orthogonalEdgeStyle;rounded=0;orthogonalLoop=1;jettySize=auto;html=1;exitX=0.5;exitY=1;exitDx=0;exitDy=0;entryX=0.5;entryY=0;entryDx=0;entryDy=0;" parent="1" source="FltLW4cWOiDt6dzvmv6e-2" target="FltLW4cWOiDt6dzvmv6e-5" edge="1">
          <mxGeometry relative="1" as="geometry" />
        </mxCell>
        <mxCell id="FltLW4cWOiDt6dzvmv6e-2" value="FileIO (Connector)" style="rounded=0;whiteSpace=wrap;html=1;" parent="1" vertex="1">
          <mxGeometry x="150" y="220" width="120" height="60" as="geometry" />
        </mxCell>
        <mxCell id="0rwdZazvOlytYyuz9B_8-2" style="edgeStyle=orthogonalEdgeStyle;rounded=0;orthogonalLoop=1;jettySize=auto;html=1;entryX=0;entryY=0.5;entryDx=0;entryDy=0;" parent="1" source="FltLW4cWOiDt6dzvmv6e-3" target="FltLW4cWOiDt6dzvmv6e-5" edge="1">
          <mxGeometry relative="1" as="geometry">
            <Array as="points">
              <mxPoint x="-10" y="350" />
            </Array>
          </mxGeometry>
        </mxCell>
        <mxCell id="FltLW4cWOiDt6dzvmv6e-3" value="User" style="rounded=0;whiteSpace=wrap;html=1;" parent="1" vertex="1">
          <mxGeometry x="-50" y="325" width="120" height="50" as="geometry" />
        </mxCell>
        <mxCell id="FltLW4cWOiDt6dzvmv6e-9" style="edgeStyle=orthogonalEdgeStyle;rounded=0;orthogonalLoop=1;jettySize=auto;html=1;exitX=1;exitY=0.25;exitDx=0;exitDy=0;entryX=0;entryY=0.25;entryDx=0;entryDy=0;" parent="1" source="J-ftd_BnPdTjSCzFPeN--1" target="FltLW4cWOiDt6dzvmv6e-6" edge="1">
          <mxGeometry relative="1" as="geometry" />
        </mxCell>
        <mxCell id="FltLW4cWOiDt6dzvmv6e-13" style="edgeStyle=orthogonalEdgeStyle;rounded=0;orthogonalLoop=1;jettySize=auto;html=1;exitX=0.75;exitY=0;exitDx=0;exitDy=0;entryX=0.75;entryY=1;entryDx=0;entryDy=0;" parent="1" source="FltLW4cWOiDt6dzvmv6e-5" target="FltLW4cWOiDt6dzvmv6e-2" edge="1">
          <mxGeometry relative="1" as="geometry" />
        </mxCell>
        <mxCell id="J-ftd_BnPdTjSCzFPeN--2" style="edgeStyle=orthogonalEdgeStyle;rounded=0;orthogonalLoop=1;jettySize=auto;html=1;exitX=0.25;exitY=1;exitDx=0;exitDy=0;entryX=0.25;entryY=0;entryDx=0;entryDy=0;" parent="1" source="FltLW4cWOiDt6dzvmv6e-5" target="J-ftd_BnPdTjSCzFPeN--1" edge="1">
          <mxGeometry relative="1" as="geometry" />
        </mxCell>
        <mxCell id="FltLW4cWOiDt6dzvmv6e-5" value="UserRepository" style="rounded=0;whiteSpace=wrap;html=1;" parent="1" vertex="1">
          <mxGeometry x="150" y="320" width="120" height="60" as="geometry" />
        </mxCell>
        <mxCell id="FltLW4cWOiDt6dzvmv6e-8" style="edgeStyle=orthogonalEdgeStyle;rounded=0;orthogonalLoop=1;jettySize=auto;html=1;entryX=1;entryY=0.5;entryDx=0;entryDy=0;" parent="1" source="FltLW4cWOiDt6dzvmv6e-6" target="J-ftd_BnPdTjSCzFPeN--1" edge="1">
          <mxGeometry relative="1" as="geometry" />
        </mxCell>
        <mxCell id="0rwdZazvOlytYyuz9B_8-12" style="edgeStyle=orthogonalEdgeStyle;rounded=0;orthogonalLoop=1;jettySize=auto;html=1;exitX=1;exitY=0.75;exitDx=0;exitDy=0;" parent="1" source="FltLW4cWOiDt6dzvmv6e-6" target="0rwdZazvOlytYyuz9B_8-4" edge="1">
          <mxGeometry relative="1" as="geometry">
            <mxPoint x="600" y="520" as="targetPoint" />
            <Array as="points">
              <mxPoint x="500" y="480" />
            </Array>
          </mxGeometry>
        </mxCell>
        <mxCell id="FltLW4cWOiDt6dzvmv6e-6" value="UI" style="rounded=0;whiteSpace=wrap;html=1;" parent="1" vertex="1">
          <mxGeometry x="380" y="430" width="120" height="60" as="geometry" />
        </mxCell>
        <mxCell id="J-ftd_BnPdTjSCzFPeN--3" style="edgeStyle=orthogonalEdgeStyle;rounded=0;orthogonalLoop=1;jettySize=auto;html=1;exitX=0.75;exitY=0;exitDx=0;exitDy=0;entryX=0.75;entryY=1;entryDx=0;entryDy=0;" parent="1" source="J-ftd_BnPdTjSCzFPeN--1" target="FltLW4cWOiDt6dzvmv6e-5" edge="1">
          <mxGeometry relative="1" as="geometry" />
        </mxCell>
        <mxCell id="J-ftd_BnPdTjSCzFPeN--1" value="UserController" style="rounded=0;whiteSpace=wrap;html=1;" parent="1" vertex="1">
          <mxGeometry x="150" y="430" width="120" height="60" as="geometry" />
        </mxCell>
        <mxCell id="0rwdZazvOlytYyuz9B_8-3" value="&lt;font style=&quot;font-size: 19px&quot;&gt;&lt;b&gt;Architecture of&amp;nbsp;&lt;/b&gt;&lt;b&gt;Modern MVC Application&amp;nbsp;&lt;/b&gt;&lt;/font&gt;" style="text;html=1;strokeColor=none;fillColor=none;align=center;verticalAlign=middle;whiteSpace=wrap;rounded=0;" parent="1" vertex="1">
          <mxGeometry x="10" y="70" width="420" height="20" as="geometry" />
        </mxCell>
        <mxCell id="0rwdZazvOlytYyuz9B_8-5" style="edgeStyle=orthogonalEdgeStyle;rounded=0;orthogonalLoop=1;jettySize=auto;html=1;exitX=0.5;exitY=0.5;exitDx=0;exitDy=0;exitPerimeter=0;" parent="1" source="0rwdZazvOlytYyuz9B_8-4" target="FltLW4cWOiDt6dzvmv6e-6" edge="1">
          <mxGeometry relative="1" as="geometry" />
        </mxCell>
        <mxCell id="0rwdZazvOlytYyuz9B_8-4" value="Patient" style="shape=umlActor;verticalLabelPosition=bottom;verticalAlign=top;html=1;outlineConnect=0;" parent="1" vertex="1">
          <mxGeometry x="590" y="430" width="30" height="60" as="geometry" />
        </mxCell>
        <mxCell id="0rwdZazvOlytYyuz9B_8-10" value="I want to log in" style="text;html=1;strokeColor=none;fillColor=none;align=center;verticalAlign=middle;whiteSpace=wrap;rounded=0;" parent="1" vertex="1">
          <mxGeometry x="530" y="450" width="60" height="20" as="geometry" />
        </mxCell>
      </root>
    </mxGraphModel>
  </diagram>
  <diagram id="qsbpN2R7-V0dYfW42ZiD" name="Login Flow">
    <mxGraphModel dx="1422" dy="882" grid="1" gridSize="10" guides="1" tooltips="1" connect="1" arrows="1" fold="1" page="1" pageScale="1" pageWidth="827" pageHeight="1169" math="0" shadow="0">
      <root>
        <mxCell id="koHSfzxaYGp3d9Tgct9M-0" />
        <mxCell id="koHSfzxaYGp3d9Tgct9M-1" parent="koHSfzxaYGp3d9Tgct9M-0" />
        <mxCell id="koHSfzxaYGp3d9Tgct9M-2" value="&lt;b&gt;1. User input his/her email and password and click login&lt;/b&gt;" style="rounded=0;whiteSpace=wrap;html=1;" vertex="1" parent="koHSfzxaYGp3d9Tgct9M-1">
          <mxGeometry x="160" y="110" width="600" height="60" as="geometry" />
        </mxCell>
        <mxCell id="koHSfzxaYGp3d9Tgct9M-3" value="&lt;b&gt;2. UI ask for Controller to check the credential&lt;/b&gt;" style="rounded=0;whiteSpace=wrap;html=1;" vertex="1" parent="koHSfzxaYGp3d9Tgct9M-1">
          <mxGeometry x="160" y="190" width="600" height="60" as="geometry" />
        </mxCell>
        <mxCell id="koHSfzxaYGp3d9Tgct9M-4" value="&lt;b&gt;3. UI ask Controller to check the credential&lt;/b&gt;" style="rounded=0;whiteSpace=wrap;html=1;" vertex="1" parent="koHSfzxaYGp3d9Tgct9M-1">
          <mxGeometry x="160" y="270" width="600" height="60" as="geometry" />
        </mxCell>
        <mxCell id="koHSfzxaYGp3d9Tgct9M-5" value="&lt;b&gt;4. Controller ask repository whether the email &amp;amp; password combination exist&lt;/b&gt;" style="rounded=0;whiteSpace=wrap;html=1;" vertex="1" parent="koHSfzxaYGp3d9Tgct9M-1">
          <mxGeometry x="160" y="350" width="600" height="60" as="geometry" />
        </mxCell>
        <mxCell id="2U7p5Vr0uYVJKH-rA9wW-0" value="&lt;b&gt;5. Repository ask connector to provide all users in the txt, and select by email and password&lt;/b&gt;" style="rounded=0;whiteSpace=wrap;html=1;" vertex="1" parent="koHSfzxaYGp3d9Tgct9M-1">
          <mxGeometry x="160" y="430" width="600" height="60" as="geometry" />
        </mxCell>
        <mxCell id="2U7p5Vr0uYVJKH-rA9wW-1" value="&lt;b&gt;6. Connector will read all users and give them back to Repository&lt;/b&gt;" style="rounded=0;whiteSpace=wrap;html=1;" vertex="1" parent="koHSfzxaYGp3d9Tgct9M-1">
          <mxGeometry x="160" y="510" width="600" height="60" as="geometry" />
        </mxCell>
        <mxCell id="qJ43Hg4v4rErxul0qgU7-0" value="&lt;b&gt;7. Repository sent data back to controller&lt;/b&gt;" style="rounded=0;whiteSpace=wrap;html=1;" vertex="1" parent="koHSfzxaYGp3d9Tgct9M-1">
          <mxGeometry x="160" y="585" width="600" height="60" as="geometry" />
        </mxCell>
        <mxCell id="qJ43Hg4v4rErxul0qgU7-1" value="&lt;b&gt;8. Controller validate the data and response back to UI&lt;/b&gt;" style="rounded=0;whiteSpace=wrap;html=1;" vertex="1" parent="koHSfzxaYGp3d9Tgct9M-1">
          <mxGeometry x="160" y="660" width="600" height="60" as="geometry" />
        </mxCell>
        <mxCell id="qJ43Hg4v4rErxul0qgU7-2" value="&lt;b&gt;9. Controller validate the data and response back to UI&lt;/b&gt;" style="rounded=0;whiteSpace=wrap;html=1;" vertex="1" parent="koHSfzxaYGp3d9Tgct9M-1">
          <mxGeometry x="160" y="740" width="600" height="60" as="geometry" />
        </mxCell>
        <mxCell id="qJ43Hg4v4rErxul0qgU7-3" value="&lt;b&gt;10. UI provide response back to User&lt;/b&gt;" style="rounded=0;whiteSpace=wrap;html=1;" vertex="1" parent="koHSfzxaYGp3d9Tgct9M-1">
          <mxGeometry x="160" y="820" width="600" height="60" as="geometry" />
        </mxCell>
      </root>
    </mxGraphModel>
  </diagram>
</mxfile>
